<?xml version="1.0" encoding="utf-8"?><svg width="600px" height="600px" viewBox="0 0 600 600" version="1.1" xmlns:xlink="http://www.w3.org/1999/xlink" xmlns="http://www.w3.org/2000/svg"><g id="Group"><path d="M0 0L600 0L600 600L0 600L0 0Z" id="Rectangle" fill="#000000" fill-rule="evenodd" stroke="none" /><path d="M172.128 183.424L172.128 0L230.624 0C241.888 0 251.595 1.10933 259.744 3.328C267.893 5.54668 274.592 8.70401 279.84 12.8C285.088 16.896 288.971 21.9093 291.488 27.84C294.005 33.7707 295.264 40.448 295.264 47.872C295.264 52.3947 294.56 56.7467 293.152 60.928C291.744 65.1094 289.611 68.992 286.752 72.576C283.893 76.16 280.309 79.36 276 82.176C271.691 84.992 266.635 87.296 260.832 89.088C274.229 91.7334 284.341 96.5547 291.168 103.552C297.995 110.549 301.408 119.765 301.408 131.2C301.408 138.965 299.979 146.048 297.12 152.448C294.261 158.848 290.08 164.352 284.576 168.96C279.072 173.568 272.331 177.131 264.352 179.648C256.373 182.165 247.264 183.424 237.024 183.424L172.128 183.424ZM196.96 99.84L196.96 163.712L236.64 163.712C243.723 163.712 249.803 162.901 254.88 161.28C259.957 159.659 264.139 157.376 267.424 154.432C270.709 151.488 273.12 147.989 274.656 143.936C276.192 139.883 276.96 135.424 276.96 130.56C276.96 121.088 273.611 113.6 266.912 108.096C260.213 102.592 250.08 99.84 236.512 99.84L196.96 99.84ZM196.96 82.176L229.728 82.176C236.725 82.176 242.784 81.408 247.904 79.872C253.024 78.336 257.269 76.2027 260.64 73.472C264.011 70.7414 266.507 67.4347 268.128 63.552C269.749 59.6693 270.56 55.424 270.56 50.816C270.56 40.064 267.317 32.1707 260.832 27.136C254.347 22.1013 244.277 19.584 230.624 19.584L196.96 19.584L196.96 82.176ZM143.616 0L143.616 20.864L84.352 20.864L84.352 183.424L59.52 183.424L59.52 20.864L0 20.864L0 0L143.616 0Z" transform="translate(142.84814 208.28801)" id="TB" fill="#FFFFFF" stroke="none" /></g></svg>